<svg id="visual" viewBox="0 0 960 100" width="960" height="100" xmlns="http://www.w3.org/2000/svg" xmlns:xlink="http://www.w3.org/1999/xlink" version="1.1"><rect x="0" y="0" width="960" height="100" fill="#FEFEFE"></rect><path d="M0 22L26.7 20.5C53.3 19 106.7 16 160 21.7C213.3 27.3 266.7 41.7 320 51.7C373.3 61.7 426.7 67.3 480 59C533.3 50.7 586.7 28.3 640 26.8C693.3 25.3 746.7 44.7 800 53C853.3 61.3 906.7 58.7 933.3 57.3L960 56L960 0L933.3 0C906.7 0 853.3 0 800 0C746.7 0 693.3 0 640 0C586.7 0 533.3 0 480 0C426.7 0 373.3 0 320 0C266.7 0 213.3 0 160 0C106.7 0 53.3 0 26.7 0L0 0Z" fill="#c286ff" fill-opacity="0.3" stroke-linecap="round" stroke-linejoin="miter"></path></svg>