<svg id="visual" viewBox="0 0 960 100" width="960" height="100" xmlns="http://www.w3.org/2000/svg" xmlns:xlink="http://www.w3.org/1999/xlink" version="1.1"><rect x="0" y="0" width="960" height="100" fill="#FEFEFE"></rect><path d="M0 76L26.7 77.5C53.3 79 106.7 82 160 76.3C213.3 70.7 266.7 56.3 320 46.3C373.3 36.3 426.7 30.7 480 39C533.3 47.3 586.7 69.7 640 71.2C693.3 72.7 746.7 53.3 800 45C853.3 36.7 906.7 39.3 933.3 40.7L960 42L960 101L933.3 101C906.7 101 853.3 101 800 101C746.7 101 693.3 101 640 101C586.7 101 533.3 101 480 101C426.7 101 373.3 101 320 101C266.7 101 213.3 101 160 101C106.7 101 53.3 101 26.7 101L0 101Z" fill="#c286ff" fill-opacity="0.3" stroke-linecap="round" stroke-linejoin="miter"></path></svg>